<svg width="122" height="122" viewBox="0 0 122 122" fill="none" xmlns="http://www.w3.org/2000/svg">
<rect width="122" height="122" rx="13" fill="#44B31F"/>
<path d="M101.159 30.4885H24.9723L20.927 38.5791H97.1134L101.159 30.4885Z" fill="white"/>
<path d="M24.9723 41.7112H101.159L97.1134 49.8017H65.7625V59.0543C69.1738 56.4109 73.5124 54.8582 78.2353 54.8582C89.22 54.8582 97.6191 63.0888 97.6191 74.0734C97.6191 83.3704 90.999 89.7286 82.3053 91.4628L82.6178 93.9629L74.5272 88.0634L80.9323 80.4785L81.2766 83.2342C85.4037 81.8099 88.3487 78.0512 88.3487 73.3993C88.3487 67.4414 83.519 62.4431 77.5611 62.4431C73.2161 62.4431 68.5744 64.9225 66.38 68.5761C65.9171 69.3467 65.7625 70.252 65.7625 71.151V99.0196L56.3233 97.6709V87.398C52.9379 89.9626 48.6645 91.4647 44.019 91.4647C33.0343 91.4647 24.6352 83.2344 24.6352 72.2497C24.6352 62.9529 31.2553 56.5947 39.949 54.8602L39.6365 52.3603L47.7271 58.2597L41.322 65.8446L40.9777 63.089C36.8503 64.513 33.9056 68.2719 33.9056 72.9239C33.9056 78.8818 38.7353 83.8798 44.6932 83.8798C48.8454 83.8798 53.2683 81.6158 55.5678 78.2265C56.1294 77.3988 56.3233 76.3915 56.3233 75.3915V49.8017H20.927L24.9723 41.7112Z" fill="white"/>
</svg>
