<svg width="48" height="66" viewBox="0 0 48 66" fill="none" xmlns="http://www.w3.org/2000/svg">
<path fill-rule="evenodd" clip-rule="evenodd" d="M12.8112 23.6631C14.3491 22.3135 16.1066 21.623 18.0839 21.623C20.1867 21.623 22.0384 22.4077 23.5762 23.9455C24.8944 25.2323 25.5221 26.9585 25.5221 28.9357V33.0157V37.0957C25.5221 38.3825 25.9301 39.3868 26.7461 40.2028C27.5621 40.9875 28.5978 41.3955 29.9787 41.3955C31.2969 41.3955 32.3326 40.9875 33.1486 40.1715C33.9646 39.3868 34.3726 38.3825 34.3726 37.0957V23.1295C34.3726 23.0667 34.3726 23.004 34.3726 22.9412C34.404 22.596 34.5609 22.2821 34.812 22.0624C35.0944 21.78 35.4711 21.623 35.8791 21.623C36.7264 21.623 37.3855 22.3135 37.3855 23.1295V37.0644C37.3855 39.1985 36.6637 40.9875 35.1572 42.337C33.6194 43.6865 31.8618 44.377 29.8846 44.377C27.7818 44.377 25.9301 43.5924 24.3922 42.0545C23.0741 40.7678 22.4464 39.0416 22.4464 37.0644V32.9843V28.9043C22.4464 27.6175 22.0384 26.6132 21.2224 25.7972C20.4064 25.0126 19.3707 24.6046 17.9897 24.6046C16.6716 24.6046 15.6359 25.0126 14.8199 25.8286C14.0353 26.6446 13.6272 27.6489 13.6272 28.9357V42.8705C13.6272 42.9333 13.6272 42.9961 13.6272 43.0589C13.5959 43.4041 13.4389 43.7179 13.1879 43.9376C12.9054 44.2201 12.5288 44.377 12.1208 44.377C11.2734 44.377 10.6143 43.6865 10.6143 42.8705V28.9357C10.5829 26.8015 11.3048 24.9812 12.8112 23.6631Z" fill="white"/>
<path fill-rule="evenodd" clip-rule="evenodd" d="M12.0894 21.623C11.2734 21.623 10.5829 20.9639 10.5829 20.1165V12.4586C10.5829 11.6426 11.2734 10.9521 12.0894 10.9521C12.9054 10.9521 13.5959 11.6426 13.5959 12.4586V20.1165C13.6273 20.9639 12.9368 21.623 12.0894 21.623Z" fill="white"/>
<path fill-rule="evenodd" clip-rule="evenodd" d="M35.9106 55.0478C35.0632 55.0478 34.4041 54.3573 34.4041 53.5413V45.8834C34.4041 45.036 35.0946 44.377 35.9106 44.377C36.7266 44.377 37.4171 45.0674 37.4171 45.8834V53.5413C37.4171 54.3573 36.758 55.0478 35.9106 55.0478Z" fill="white"/>
</svg>
