<svg width="122" height="122" viewBox="0 0 122 122" fill="none" xmlns="http://www.w3.org/2000/svg">
<rect width="122" height="122" rx="13" fill="white"/>
<path d="M82.9226 62.912C82.9226 66.2648 81.2719 69.5919 77.9707 72.8931C74.6694 76.1944 71.3424 77.845 67.9895 77.845H57.3894C57.1315 77.845 55.9967 77.4324 53.985 76.6071C52.9017 76.1944 52.0506 75.2401 51.4316 73.7443C50.9674 72.661 50.4774 71.552 49.9616 70.4172V88.832H38.7424V48.598C38.7424 44.9356 40.4446 41.5312 43.8491 38.3847C47.2535 35.2382 50.7869 33.6649 54.4492 33.6649H82.9226C82.9741 34.0776 82.9999 34.516 82.9999 34.9803C82.9999 37.2499 82.3036 39.2358 80.9108 40.938C79.5697 42.5886 77.7901 43.775 75.5721 44.4972H82.9226V62.912ZM71.8582 62.912V44.6519H54.4492C53.8818 44.6519 52.9533 45.1935 51.6638 46.2768C50.4258 47.3084 49.8068 48.0821 49.8068 48.598V66.7033H67.9895C68.4538 66.7549 69.2017 66.2648 70.2333 65.2332C71.3166 64.15 71.8582 63.3762 71.8582 62.912Z" fill="black"/>
</svg>
