<svg width="19" height="30" viewBox="0 0 19 30" fill="none" xmlns="http://www.w3.org/2000/svg">
<path fill-rule="evenodd" clip-rule="evenodd" d="M1.6375 8.70499C2.67434 7.79511 3.85929 7.32959 5.19237 7.32959C6.61009 7.32959 7.85852 7.85859 8.89536 8.89543C9.78408 9.76298 10.2073 10.9268 10.2073 12.2599V15.0107V17.7614C10.2073 18.629 10.4824 19.3061 11.0325 19.8563C11.5827 20.3853 12.281 20.6604 13.212 20.6604C14.1007 20.6604 14.799 20.3853 15.3491 19.8351C15.8993 19.3061 16.1744 18.629 16.1744 17.7614V8.34527C16.1744 8.30295 16.1744 8.26063 16.1744 8.21831C16.1955 7.98555 16.3013 7.77395 16.4706 7.62583C16.6611 7.43539 16.915 7.32959 17.1901 7.32959C17.7614 7.32959 18.2057 7.79511 18.2057 8.34527V17.7403C18.2057 19.1792 17.7191 20.3853 16.7034 21.2952C15.6665 22.205 14.4816 22.6706 13.1485 22.6706C11.7308 22.6706 10.4824 22.1416 9.44552 21.1047C8.5568 20.2372 8.1336 19.0734 8.1336 17.7403V14.9895V12.2387C8.1336 11.3711 7.85852 10.694 7.30837 10.1439C6.75821 9.61486 6.05993 9.33979 5.12889 9.33979C4.24017 9.33979 3.54189 9.61487 2.99173 10.165C2.46274 10.7152 2.18766 11.3923 2.18766 12.2599V21.6549C2.18766 21.6972 2.18766 21.7395 2.18766 21.7818C2.1665 22.0146 2.0607 22.2262 1.89142 22.3743C1.70098 22.5648 1.44706 22.6706 1.17198 22.6706C0.60066 22.6706 0.156301 22.205 0.156301 21.6549V12.2599C0.135141 10.821 0.62182 9.5937 1.6375 8.70499Z" fill="white"/>
<path fill-rule="evenodd" clip-rule="evenodd" d="M1.15081 7.32964C0.600651 7.32964 0.135132 6.88528 0.135132 6.31396V1.15093C0.135132 0.600773 0.600651 0.135254 1.15081 0.135254C1.70097 0.135254 2.16649 0.600773 2.16649 1.15093V6.31396C2.18765 6.88528 1.72213 7.32964 1.15081 7.32964Z" fill="#FF0000"/>
<path fill-rule="evenodd" clip-rule="evenodd" d="M17.2114 29.8648C16.64 29.8648 16.1957 29.3993 16.1957 28.8491V23.6861C16.1957 23.1148 16.6612 22.6704 17.2114 22.6704C17.7615 22.6704 18.227 23.1359 18.227 23.6861V28.8491C18.227 29.3993 17.7827 29.8648 17.2114 29.8648Z" fill="#0000FF"/>
</svg>
